<?xml version="1.0" standalone="no"?>
<!DOCTYPE svg PUBLIC "-//W3C//DTD SVG 20010904//EN"
 "http://www.w3.org/TR/2001/REC-SVG-20010904/DTD/svg10.dtd">
<svg version="1.0" xmlns="http://www.w3.org/2000/svg"
 width="1503.000000pt" height="1503.000000pt" viewBox="0 0 1503.000000 1503.000000"
 preserveAspectRatio="xMidYMid meet">
<metadata>
Created by potrace 1.14, written by Peter Selinger 2001-2017
</metadata>
<g transform="translate(0.000000,1503.000000) scale(0.100000,-0.100000)"
fill="#000000" stroke="none">
<path d="M13220 9302 c-125 -61 -200 -141 -236 -251 -18 -54 -21 -84 -18 -166
3 -87 7 -107 34 -162 31 -62 146 -189 239 -263 24 -19 55 -45 70 -57 14 -12
71 -59 126 -104 55 -45 117 -98 138 -118 47 -45 111 -142 132 -201 20 -55 30
-130 18 -130 -15 0 -116 -69 -157 -108 -91 -86 -158 -194 -191 -305 -23 -80
-27 -110 -26 -202 1 -131 -22 -57 298 -955 79 -223 137 -318 253 -413 58 -49
188 -113 269 -133 85 -21 239 -21 321 -1 227 58 412 234 487 462 21 67 26 99
26 195 1 128 -4 150 -83 370 -27 74 -87 245 -135 380 -146 413 -154 432 -223
520 -130 165 -329 263 -532 261 -47 0 -96 -3 -110 -6 -91 -19 -100 -19 -100 7
0 46 -43 150 -92 224 -55 83 -110 135 -323 307 -178 144 -286 250 -316 309
-18 36 -22 60 -23 143 0 119 18 168 84 233 39 38 132 92 159 92 19 0 22 20 10
60 -14 48 -24 49 -99 12z m935 -1494 c140 -30 272 -122 355 -246 39 -59 94
-192 83 -203 -8 -8 -479 -179 -494 -179 -4 0 -11 9 -14 20 -5 16 -12 19 -27
14 -16 -5 -13 1 11 22 46 42 49 82 15 180 -34 97 -67 134 -120 134 -34 0 -36
1 -20 13 18 13 17 18 -14 101 -18 48 -38 85 -44 83 -6 -2 -27 -10 -47 -17
l-36 -13 33 -86 c29 -76 35 -86 56 -83 l23 3 -23 -16 c-28 -21 -49 -63 -47
-95 4 -48 55 -174 82 -202 20 -21 37 -28 67 -29 23 -1 33 -3 24 -6 -13 -3 -15
-9 -8 -28 10 -28 34 -17 -270 -125 -198 -70 -226 -78 -237 -64 -25 33 -56 179
-55 259 1 83 4 103 23 164 91 294 384 465 684 399z m508 -620 c14 -40 39 -111
55 -158 190 -531 184 -511 185 -615 3 -137 -21 -230 -87 -333 -28 -44 -111
-132 -156 -165 -87 -63 -244 -107 -360 -101 -152 9 -269 62 -380 174 -87 87
-113 134 -180 325 -17 50 -42 119 -55 155 -99 274 -141 401 -135 405 4 2 78
30 166 60 198 71 517 185 734 263 91 33 170 60 177 61 6 1 22 -32 36 -71z"/>
<path d="M122 8905 c3 -3 65 -12 143 -20 80 -8 139 -16 160 -20 11 -2 51 -7
88 -10 37 -4 76 -8 85 -9 9 -2 49 -7 87 -10 39 -4 81 -9 95 -11 58 -8 119 -15
175 -20 33 -4 112 -13 175 -20 63 -8 138 -17 165 -20 47 -4 83 -9 180 -20 22
-3 63 -7 90 -10 28 -3 66 -7 85 -10 19 -2 59 -7 88 -10 l52 -6 0 100 0 100
-836 -1 c-460 0 -834 -1 -832 -3z"/>
<path d="M1925 7527 l0 -1382 511 -3 511 -2 27 77 c28 80 62 172 76 208 5 11
54 148 110 305 163 457 152 430 178 430 12 0 22 -3 23 -7 0 -5 2 -231 3 -503
2 -272 4 -498 4 -502 1 -5 251 -8 556 -8 l555 0 22 73 c28 87 34 96 62 92 12
-2 72 -9 132 -15 61 -6 126 -13 145 -15 19 -2 82 -9 140 -15 58 -6 121 -13
140 -15 19 -2 62 -7 95 -10 106 -10 149 -15 185 -20 19 -2 64 -7 100 -10 36
-4 79 -8 95 -10 17 -2 57 -6 90 -10 33 -4 75 -8 93 -10 18 -2 65 -7 105 -11
40 -3 75 -8 80 -11 4 -2 7 -2 7 0 0 2 4 28 10 58 5 30 12 69 15 88 3 19 8 38
10 42 3 4 -1 9 -8 11 -6 2 -335 4 -729 3 -395 0 -718 1 -718 3 0 6 90 283 107
330 l16 42 56 -5 c53 -5 76 -8 169 -20 20 -2 66 -7 102 -10 36 -3 81 -8 100
-10 19 -2 82 -9 140 -15 58 -6 121 -13 140 -15 19 -2 62 -7 95 -10 33 -3 78
-8 100 -10 100 -12 120 -15 188 -21 40 -3 119 -12 176 -18 72 -9 104 -9 107
-2 3 8 34 182 34 190 0 0 -313 1 -695 0 -382 0 -695 2 -695 5 0 3 26 85 58
181 54 165 59 175 82 174 27 -1 115 -9 255 -24 50 -6 113 -12 140 -15 108 -11
151 -16 185 -20 38 -6 98 -12 204 -21 38 -3 78 -7 88 -9 11 -2 47 -7 81 -10
66 -6 129 -13 187 -20 103 -13 150 -15 151 -8 1 11 6 36 22 115 8 37 12 70 9
73 -3 3 -302 5 -664 5 l-659 0 6 23 c30 101 101 315 108 325 6 7 17 10 26 8 9
-3 48 -7 86 -11 39 -3 81 -8 95 -10 14 -2 57 -6 95 -10 39 -4 84 -8 100 -10
17 -2 57 -7 90 -10 72 -7 139 -14 180 -20 17 -2 62 -7 100 -10 39 -3 84 -8
100 -10 28 -4 77 -9 180 -20 22 -2 72 -7 110 -10 39 -4 74 -8 79 -8 9 -2 27
70 40 158 l6 40 -630 -1 c-439 0 -630 3 -630 10 0 25 109 341 117 340 4 -1 42
-5 83 -8 74 -7 122 -12 190 -21 19 -2 67 -7 105 -10 39 -4 81 -8 95 -10 14 -2
54 -6 90 -10 36 -3 99 -10 140 -15 41 -5 109 -12 150 -16 41 -3 77 -7 80 -9 6
-3 173 -18 217 -19 18 -1 33 2 34 6 1 4 10 48 19 98 l17 90 -601 2 -602 3 54
169 54 169 77 -8 c131 -12 141 -13 199 -19 66 -8 118 -14 182 -20 89 -9 256
-27 290 -31 19 -2 64 -7 100 -10 36 -3 76 -8 90 -10 14 -2 59 -7 100 -11 41
-3 78 -8 82 -10 10 -6 15 6 22 51 3 22 8 51 11 65 12 66 13 79 2 82 -7 2 -263
3 -570 2 l-557 -1 6 21 c4 12 28 86 54 166 l48 145 43 -1 c53 -1 212 -15 219
-19 3 -2 41 -6 85 -10 44 -3 91 -8 105 -10 14 -2 52 -6 85 -10 33 -3 76 -8 95
-10 19 -2 103 -11 185 -20 83 -8 173 -17 201 -20 l51 -6 7 33 c4 18 9 51 12
73 3 22 9 52 14 67 l8 26 -981 -1 -981 -2 -128 -415 c-70 -228 -134 -437 -143
-465 -8 -27 -42 -138 -75 -245 -34 -107 -63 -204 -65 -214 -3 -11 -16 -56 -31
-100 -14 -45 -28 -87 -30 -95 -3 -9 -8 -10 -17 -3 -9 8 -12 179 -12 776 l1
765 -336 -2 -335 -2 -86 -230 c-47 -126 -88 -237 -91 -245 -3 -8 -30 -80 -58
-160 -29 -80 -59 -158 -66 -175 -7 -16 -47 -124 -89 -240 -42 -115 -80 -219
-85 -230 -6 -11 -28 -72 -51 -135 -23 -63 -47 -118 -52 -122 -12 -8 -29 0 -23
10 2 4 7 68 10 142 4 74 9 167 11 205 2 39 6 131 10 205 3 74 8 160 10 190 2
30 7 120 10 200 3 80 8 165 10 190 3 37 14 246 19 365 l1 30 -440 2 -440 1 0
-1381z"/>
<path d="M6586 8877 c-4 -17 -14 -68 -21 -112 -8 -44 -24 -134 -35 -200 -28
-159 -29 -166 -35 -195 -11 -55 -14 -76 -19 -110 -3 -19 -8 -46 -11 -60 -6
-33 -124 -706 -130 -745 -3 -16 -8 -41 -10 -55 -3 -14 -7 -36 -10 -50 -3 -14
-7 -36 -10 -50 -2 -14 -7 -38 -9 -55 -3 -16 -12 -70 -21 -120 -20 -119 -19
-110 -60 -345 -43 -242 -53 -303 -61 -350 -3 -19 -7 -42 -9 -50 -3 -8 -7 -33
-11 -55 -3 -22 -12 -71 -19 -108 -11 -56 -11 -69 0 -73 19 -8 1379 2 1440 10
457 57 711 195 904 491 39 60 71 113 71 118 0 9 48 6 155 -7 17 -2 64 -7 105
-10 41 -4 86 -9 100 -11 14 -2 54 -7 90 -10 36 -3 81 -8 100 -10 19 -2 60 -7
90 -10 72 -7 146 -15 190 -20 19 -3 64 -7 100 -10 36 -3 72 -8 80 -10 8 -2 51
-7 95 -10 44 -4 94 -8 110 -11 17 -2 77 -8 135 -14 121 -12 181 -19 230 -25
19 -3 66 -8 105 -11 38 -3 73 -8 77 -10 3 -2 9 0 13 6 9 14 37 179 31 188 -2
4 -407 7 -900 6 -492 0 -894 2 -892 5 27 46 97 230 132 343 16 53 20 57 43 53
14 -2 58 -6 96 -10 39 -3 81 -8 95 -10 23 -3 99 -11 209 -21 24 -2 60 -6 80
-8 20 -3 65 -8 101 -11 36 -4 76 -8 90 -10 14 -2 54 -6 90 -10 36 -3 81 -8
100 -10 81 -10 273 -30 375 -39 39 -4 84 -8 100 -11 61 -9 255 -28 299 -29 32
-1 34 4 50 108 4 21 9 50 12 62 l6 24 -858 0 c-471 0 -859 1 -861 3 -2 2 6 39
16 83 25 101 58 269 60 303 1 13 18 13 161 -4 14 -2 54 -6 90 -9 120 -12 165
-17 190 -21 14 -2 59 -7 100 -10 41 -3 86 -8 100 -10 14 -2 52 -6 85 -10 33
-3 76 -8 95 -10 19 -2 62 -7 95 -10 33 -3 78 -8 100 -10 47 -6 118 -13 195
-21 30 -3 69 -7 85 -9 17 -2 62 -7 100 -10 39 -4 81 -8 95 -11 14 -2 56 -6 95
-9 38 -4 75 -8 81 -10 11 -3 25 50 39 155 l7 45 -852 -1 -851 0 6 65 c3 36 8
80 10 96 7 45 14 144 14 198 l1 48 58 -6 c31 -3 82 -8 112 -10 30 -3 66 -8 80
-10 14 -3 95 -12 180 -20 85 -8 175 -17 200 -20 25 -3 68 -7 95 -10 101 -11
142 -15 225 -24 47 -6 112 -13 145 -16 58 -5 116 -12 180 -20 17 -2 62 -6 100
-10 39 -3 120 -12 180 -19 166 -19 157 -21 171 49 7 33 15 77 18 98 l5 37
-874 0 -875 0 -1 53 c-1 75 -8 133 -25 212 -14 67 -15 92 -4 88 3 -1 37 -5 75
-8 39 -4 84 -8 100 -11 17 -2 59 -6 95 -9 36 -3 76 -8 90 -10 14 -2 57 -7 95
-11 39 -3 84 -8 100 -10 17 -2 80 -8 140 -14 61 -6 120 -13 132 -15 12 -2 57
-6 100 -10 43 -4 85 -8 93 -10 8 -2 51 -7 95 -11 44 -3 84 -7 90 -8 9 -1 17
38 30 144 l7 55 -643 -1 -642 -1 -16 30 c-105 192 -239 287 -496 351 -33 8
-87 18 -120 22 -33 3 -69 9 -80 12 -11 2 -340 6 -731 8 l-712 4 -6 -33z m1225
-691 c30 -8 65 -19 77 -25 44 -23 67 -110 52 -194 -5 -23 -11 -60 -14 -82 -4
-22 -15 -87 -26 -145 -16 -90 -55 -311 -66 -375 -22 -139 -58 -320 -70 -357
-21 -65 -70 -113 -136 -134 -42 -14 -104 -18 -305 -21 -139 -3 -253 -1 -253 3
0 5 7 45 15 89 9 44 18 96 21 115 4 30 15 95 39 225 6 35 34 196 41 239 28
164 56 327 69 401 9 50 18 101 20 115 2 14 9 56 16 93 l11 68 227 -1 c146 -1
246 -6 282 -14z"/>
<path d="M8252 8905 c2 -2 35 -7 73 -10 39 -3 88 -8 110 -11 22 -3 61 -7 86
-9 26 -2 64 -6 85 -9 37 -5 184 -21 289 -31 28 -3 68 -7 90 -10 74 -9 130 -14
200 -20 39 -4 77 -8 85 -10 8 -2 47 -7 85 -10 39 -4 106 -10 150 -15 44 -5
105 -12 135 -15 117 -12 156 -16 190 -20 19 -2 59 -7 88 -10 28 -3 74 -7 101
-11 27 -3 51 -1 54 3 3 4 8 26 11 48 12 79 18 110 22 127 4 15 -63 16 -927 16
-512 0 -929 -1 -927 -3z"/>
<path d="M10241 8852 c-6 -31 -27 -142 -46 -247 -19 -104 -37 -206 -41 -225
-3 -19 -8 -45 -9 -57 -4 -27 -15 -83 -21 -105 -5 -17 14 -18 301 -18 287 0
306 -1 301 -17 -3 -10 -12 -61 -21 -113 -18 -115 -23 -140 -35 -205 -5 -27
-12 -66 -15 -85 -3 -19 -11 -62 -17 -95 -6 -33 -12 -70 -13 -82 -2 -12 -6 -36
-10 -53 -4 -17 -8 -41 -10 -53 -3 -22 -12 -78 -21 -127 -2 -14 -11 -65 -19
-115 -9 -49 -18 -101 -21 -115 -2 -14 -7 -41 -10 -60 -3 -19 -7 -42 -9 -50 -2
-8 -6 -28 -9 -45 -4 -27 -59 -343 -71 -405 -2 -14 -9 -54 -15 -90 -5 -36 -12
-74 -14 -85 -16 -85 -21 -116 -30 -175 -3 -19 -8 -47 -11 -62 l-5 -28 419 0
c472 0 423 -9 436 80 12 76 15 93 25 145 5 28 12 67 16 89 3 21 8 48 10 60 2
11 15 86 29 166 14 80 27 156 30 170 40 228 98 562 102 585 2 17 11 66 18 110
8 44 16 91 19 105 2 14 7 36 10 50 3 14 8 41 11 60 5 35 11 74 20 120 3 14 8
42 11 64 3 21 8 48 10 60 4 23 11 63 19 111 2 17 7 42 11 58 l6 27 304 0 304
0 4 23 c8 33 31 161 66 352 16 94 32 179 34 190 2 11 7 40 11 65 3 25 9 52 11
62 4 15 -72 16 -1024 16 l-1030 0 -11 -56z"/>
<path d="M190 8479 c0 -4 6 -9 13 -12 20 -7 135 -3 144 6 4 5 3 8 -2 7 -6 -1
-12 -1 -15 0 -14 5 -140 4 -140 -1z"/>
<path d="M446 8483 c-1 -1 -16 -3 -33 -5 -18 -1 -29 -6 -27 -10 3 -4 1 -8 -5
-8 -5 0 -12 6 -14 13 -4 9 -6 9 -6 0 -1 -20 29 -31 109 -38 96 -10 114 -12
175 -19 28 -3 70 -8 95 -11 82 -9 143 -17 159 -20 9 -2 54 -6 101 -10 47 -4
87 -8 90 -10 3 -2 39 -6 80 -10 41 -4 82 -8 90 -10 8 -1 47 -6 85 -10 39 -4
81 -8 95 -10 14 -2 50 -6 80 -9 30 -4 71 -9 90 -11 19 -2 62 -7 95 -11 33 -3
63 -8 66 -10 17 -10 24 29 19 111 l-5 90 -668 0 c-368 0 -670 -1 -671 -2z"/>
<path d="M189 8044 c63 -7 135 -15 160 -19 149 -19 247 -30 346 -40 33 -4 71
-8 85 -10 29 -4 103 -12 180 -20 30 -3 69 -8 85 -10 17 -2 57 -7 90 -10 33 -4
74 -9 90 -11 17 -2 59 -6 95 -10 36 -3 73 -8 83 -10 10 -2 46 -6 80 -9 34 -3
73 -8 87 -10 14 -3 48 -7 75 -10 28 -3 71 -8 98 -11 l47 -5 0 100 0 101 -857
-1 c-763 -1 -845 -3 -744 -15z"/>
<path d="M106 7631 c5 -6 5 -6 99 -16 39 -5 73 -8 76 -7 3 0 35 -3 70 -8 35
-5 89 -11 119 -15 30 -3 71 -8 90 -10 19 -2 100 -11 180 -20 80 -9 159 -17
175 -20 17 -2 53 -7 80 -10 110 -12 182 -21 265 -30 25 -3 86 -10 135 -15 50
-5 106 -11 125 -14 72 -10 127 -16 190 -22 36 -3 69 -8 73 -11 4 -2 6 42 5 98
l-3 103 -842 1 c-463 0 -839 -2 -837 -4z"/>
<path d="M91 7206 c2 -2 31 -6 64 -9 33 -4 78 -9 100 -12 22 -2 123 -14 225
-25 191 -21 227 -25 295 -35 22 -3 63 -7 90 -10 28 -2 66 -7 85 -9 19 -3 60
-8 90 -11 30 -3 71 -8 90 -10 19 -2 60 -7 90 -10 30 -3 71 -8 90 -10 19 -2 60
-7 90 -11 30 -3 69 -7 85 -9 17 -2 53 -6 80 -10 28 -3 66 -7 85 -10 19 -2 59
-7 88 -10 l52 -6 0 100 0 101 -852 0 c-468 0 -849 -2 -847 -4z"/>
<path d="M144 6780 c-17 -3 23 -11 101 -19 72 -7 138 -15 147 -16 9 -2 43 -6
75 -9 105 -11 168 -18 193 -22 25 -3 164 -19 270 -30 30 -3 66 -7 80 -9 30 -4
98 -13 160 -20 25 -2 68 -7 95 -11 57 -7 85 -10 170 -18 33 -4 126 -14 208
-24 l147 -18 0 100 0 101 -808 0 c-444 0 -821 -2 -838 -5z"/>
<path d="M125 6350 c-3 -5 -1 -10 4 -10 6 0 11 5 11 10 0 6 -2 10 -4 10 -3 0
-8 -4 -11 -10z"/>
<path d="M150 6348 c0 -5 14 -9 30 -9 17 -1 33 -2 38 -3 4 -1 41 -6 82 -10 41
-4 89 -10 105 -12 17 -2 71 -8 120 -14 120 -13 185 -20 215 -25 14 -2 52 -7
85 -10 33 -4 74 -8 90 -10 17 -2 57 -6 90 -10 33 -3 74 -8 90 -10 17 -2 93
-11 170 -20 194 -21 224 -25 270 -31 22 -3 56 -7 75 -9 110 -11 166 -18 173
-22 4 -2 7 42 7 99 l0 103 -820 0 c-451 0 -820 -3 -820 -7z"/>
<path d="M8416 6351 c2 -2 16 -6 31 -7 16 -2 55 -5 88 -9 33 -3 74 -8 90 -10
17 -2 64 -7 104 -10 41 -4 77 -8 80 -9 4 -2 49 -7 101 -11 52 -3 97 -8 100
-10 3 -1 37 -6 75 -9 108 -11 146 -14 200 -21 28 -3 73 -8 100 -10 28 -3 68
-7 90 -10 22 -2 67 -7 100 -10 33 -3 74 -8 90 -10 17 -2 62 -7 100 -10 39 -4
81 -8 95 -10 53 -7 132 -16 285 -31 39 -3 73 -8 77 -11 4 -2 10 9 14 24 3 15
8 35 10 43 2 8 6 38 10 65 3 28 7 54 8 59 0 6 -349 10 -926 10 -509 1 -924 -1
-922 -3z"/>
</g>
</svg>
